<?xml version="1.0" encoding="UTF-8" standalone="no"?>
<svg
   viewBox="0 0 165.62 254.21"
   version="1.1"
   id="svg702"
   sodipodi:docname="local-white-box.svg"
   xmlns:inkscape="http://www.inkscape.org/namespaces/inkscape"
   xmlns:sodipodi="http://sodipodi.sourceforge.net/DTD/sodipodi-0.dtd"
   xmlns="http://www.w3.org/2000/svg"
   xmlns:svg="http://www.w3.org/2000/svg">
  <sodipodi:namedview
     id="namedview704"
     pagecolor="#ffffff"
     bordercolor="#111111"
     borderopacity="1"
     inkscape:showpageshadow="0"
     inkscape:pageopacity="0"
     inkscape:pagecheckerboard="1"
     inkscape:deskcolor="#d1d1d1"
     showgrid="false" />
  <defs
     id="defs684">
    <style
       id="style682">.cls-1{fill:#fff;opacity:0.75;}</style>
  </defs>
  <title
     id="title686">local-white-box-logo_1</title>
  <g
     id="Layer_2"
     data-name="Layer 2">
    <g
       id="Layer_2-2"
       data-name="Layer 2">
      <polygon
         class="cls-1"
         points="71.72 108.75 68.87 117.84 74.58 117.84 71.73 108.75 71.72 108.75"
         id="polygon688" />
      <path
         class="cls-1"
         d="M111.74,119.93a11.34,11.34,0,0,0,2.14,1.82q1.31.89,3.11,1.9a15.47,15.47,0,0,0,4.21-3.57,6.72,6.72,0,0,0,1.48-4.23,7.47,7.47,0,0,0-.37-2.44,4.5,4.5,0,0,0-1.18-1.84,5.25,5.25,0,0,0-2-1.14,9,9,0,0,0-2.79-.39,6.49,6.49,0,0,0-4.68,1.49,5.5,5.5,0,0,0-1.54,4.13,6.46,6.46,0,0,0,.39,2.29A6.36,6.36,0,0,0,111.74,119.93Z"
         id="path690" />
      <path
         class="cls-1"
         d="M38.8,109.92a4.15,4.15,0,0,0-1.59-1.52,5.2,5.2,0,0,0-2.49-.54,4.84,4.84,0,0,0-2.52.6,4.76,4.76,0,0,0-1.63,1.61,6.9,6.9,0,0,0-.88,2.36,15.17,15.17,0,0,0-.26,2.85,18,18,0,0,0,.25,3.15,7,7,0,0,0,.84,2.39,4,4,0,0,0,1.59,1.51,5.38,5.38,0,0,0,2.5.52,4.9,4.9,0,0,0,2.52-.59,4.64,4.64,0,0,0,1.63-1.62,7.1,7.1,0,0,0,.88-2.39,15.69,15.69,0,0,0,.26-2.9,17.33,17.33,0,0,0-.25-3.07A6.87,6.87,0,0,0,38.8,109.92Z"
         id="path692" />
      <path
         class="cls-1"
         d="M121.88,136.07a13.63,13.63,0,0,0-2.49-2,39.17,39.17,0,0,0-3.48-2,29.26,29.26,0,0,0-3,1.94,11.73,11.73,0,0,0-2.17,2,7.86,7.86,0,0,0-1.29,2.25,7.37,7.37,0,0,0-.43,2.54,5.69,5.69,0,0,0,1.89,4.62A8.58,8.58,0,0,0,116.5,147q3.67,0,5.49-1.63a5.74,5.74,0,0,0,1.82-4.5,6.66,6.66,0,0,0-1.93-4.85Z"
         id="path694" />
      <path
         class="cls-1"
         d="M 0,0 V 254.21 H 165.62 V 0 Z M 9.7106901,137.13428 C 9.7091805,137.02586 13.213738,105.04583 13.28,104.96 c 0.08817,-0.0995 0.202507,-0.17228 0.33,-0.21 0.204868,-0.0653 0.416027,-0.10885 0.63,-0.13 0.333024,-0.0203 0.666976,-0.0203 1,0 0.33302,-0.0204 0.66698,-0.0204 1,0 0.210597,0.0218 0.418369,0.0654 0.62,0.13 0.127271,0.0382 0.241486,0.11089 0.33,0.21 0.06626,0.0858 0.10151,0.19158 0.1,0.3 v 17.21 h 6.33 c 0.09761,-0.002 0.192825,0.0302 0.27,0.09 0.08955,0.0808 0.155263,0.18452 0.19,0.3 0.0618,0.17789 0.102087,0.36254 0.12,0.55 0.05141,0.55548 0.05141,1.11452 0,1.67 -0.01988,0.19042 -0.06011,0.37816 -0.12,0.56 -0.03419,0.12147 -0.09972,0.23183 -0.19,0.32 -0.07495,0.0649 -0.17087,0.1004 -0.27,0.1 h -9.23 c -0.317212,0.008 -0.625343,-0.10639 -0.86,-0.32 -0.246052,-0.27291 -0.37216,-0.63322 -0.35,-1 z M 27.6,145.69 c -0.253058,1.27257 -0.719645,2.49313 -1.38,3.61 -0.567051,0.95263 -1.364931,1.74707 -2.32,2.31 -0.998464,0.55627 -2.12733,0.8359 -3.27,0.81 -1.119022,0.0294 -2.226079,-0.23617 -3.21,-0.77 -0.914272,-0.5302 -1.675655,-1.28814 -2.21,-2.2 -0.625097,-1.06731 -1.061489,-2.2344 -1.29,-3.45 -0.287439,-1.533 -0.424755,-3.09036 -0.41,-4.65 -0.01618,-1.56492 0.134679,-3.12709 0.45,-4.66 0.249426,-1.26104 0.716392,-2.46906 1.38,-3.57 0.573662,-0.94218 1.370437,-1.72865 2.32,-2.29 1.017046,-0.57549 2.171877,-0.86246 3.34,-0.83 1.104945,-0.0282 2.197971,0.23382 3.17,0.76 0.910146,0.5268 1.67081,1.27714 2.21,2.18 0.63042,1.06577 1.070331,2.23322 1.3,3.45 0.295313,1.50842 0.436041,3.04303 0.42,4.58 -0.0021,1.58697 -0.173058,3.16921 -0.51,4.72 z m 16.4,5.45 c 0.0053,0.17271 -0.0184,0.34509 -0.07,0.51 -0.0386,0.12039 -0.09968,0.23237 -0.18,0.33 -0.06656,0.0804 -0.152639,0.14238 -0.25,0.18 -0.07981,0.031 -0.164402,0.0479 -0.25,0.05 h -0.32 c -0.160294,0.003 -0.319726,-0.0241 -0.47,-0.08 -0.160423,-0.0678 -0.303854,-0.17023 -0.42,-0.3 -0.15621,-0.17287 -0.290553,-0.36431 -0.4,-0.57 -0.133333,-0.24 -0.283333,-0.54333 -0.45,-0.91 L 35.26,136.7 c -0.293333,-0.66667 -0.59,-1.35 -0.89,-2.05 -0.3,-0.7 -0.583333,-1.38333 -0.85,-2.05 v 0 2.53 16.67 c 0.01352,0.0626 0.01352,0.12739 0,0.19 -0.02866,0.0559 -0.07413,0.10134 -0.13,0.13 -0.07588,0.0377 -0.156665,0.0646 -0.24,0.08 -0.251342,0.0449 -0.508658,0.0449 -0.76,0 -0.08673,-0.0146 -0.170919,-0.0415 -0.25,-0.08 -0.05848,-0.0237 -0.107631,-0.0658 -0.14,-0.12 -0.01384,-0.0626 -0.01384,-0.12742 0,-0.19 v -20.47 c -0.03423,-0.30233 0.05603,-0.60558 0.25,-0.84 0.124748,-0.13516 0.296495,-0.21746 0.48,-0.23 h 0.65 c 0.175902,-0.004 0.3513,0.02 0.52,0.07 0.142307,0.0472 0.272177,0.12582 0.38,0.23 0.132471,0.1359 0.243719,0.29097 0.33,0.46 0.106667,0.19333 0.226667,0.44333 0.36,0.75 l 4.53,10.46 c 0.286667,0.66667 0.556667,1.29333 0.81,1.88 l 0.75,1.77 0.72,1.71 c 0.24,0.56 0.476667,1.13 0.71,1.71 v 0 -3 -15.63 c -0.01384,-0.0626 -0.01384,-0.12742 0,-0.19 0.02906,-0.0581 0.07418,-0.10672 0.13,-0.14 0.07377,-0.0426 0.155414,-0.0698 0.24,-0.08 0.126464,-0.0101 0.253536,-0.0101 0.38,0 h 0.36 c 0.08797,0.009 0.173089,0.0363 0.25,0.08 0.05766,0.0342 0.105803,0.0823 0.14,0.14 0.01566,0.0624 0.01566,0.12764 0,0.19 z m -0.43,-31.27 c -0.364025,1.30176 -0.993944,2.51393 -1.85,3.56 -0.809869,0.96981 -1.837932,1.734 -3,2.23 -1.33063,0.53598 -2.755751,0.79787 -4.19,0.77 -1.394471,0.0292 -2.78295,-0.19089 -4.1,-0.65 -1.126956,-0.40871 -2.131682,-1.09688 -2.92,-2 -0.829858,-0.99225 -1.427732,-2.15725 -1.75,-3.41 -0.414948,-1.59601 -0.610083,-3.2412 -0.58,-4.89 -0.02142,-1.57853 0.187449,-3.15174 0.62,-4.67 0.366229,-1.29182 0.996135,-2.49374 1.85,-3.53 0.812458,-0.96707 1.839812,-1.73073 3,-2.23 1.335745,-0.5434 2.768242,-0.8088 4.21,-0.78 1.360477,-0.0219 2.714271,0.19472 4,0.64 1.127158,0.40832 2.131975,1.09655 2.92,2 0.829812,0.98385 1.433978,2.13757 1.77,3.38 0.426463,1.5703 0.628468,3.19307 0.6,4.82 0.03596,1.60627 -0.159376,3.20936 -0.58,4.76 z m 5.51,3.83 c -0.824409,-0.98295 -1.434128,-2.12745 -1.79,-3.36 -0.437921,-1.52397 -0.646871,-3.10458 -0.62,-4.69 -0.02722,-1.63893 0.202223,-3.27202 0.68,-4.84 0.395646,-1.298 1.044842,-2.50462 1.91,-3.55 0.801221,-0.94534 1.811097,-1.69162 2.95,-2.18 1.198762,-0.50546 2.489147,-0.75741 3.79,-0.74 0.543516,-0.001 1.08592,0.0492 1.62,0.15 0.489509,0.0919 0.971003,0.22233 1.44,0.39 0.412998,0.1457 0.811412,0.32984 1.19,0.55 0.268597,0.14785 0.517265,0.32931 0.74,0.54 0.111926,0.11057 0.209371,0.2349 0.29,0.37 0.05754,0.12045 0.09793,0.24835 0.12,0.38 0.03451,0.17837 0.05789,0.35872 0.07,0.54 v 0.78 0.84 c -0.01317,0.19052 -0.05013,0.37865 -0.11,0.56 -0.03803,0.11686 -0.103131,0.22308 -0.19,0.31 -0.06726,0.0644 -0.156869,0.10026 -0.25,0.1 -0.22373,-0.0274 -0.431637,-0.1296 -0.59,-0.29 -0.297272,-0.23126 -0.607801,-0.44496 -0.93,-0.64 -0.426816,-0.26184 -0.879141,-0.47963 -1.35,-0.65 -0.601604,-0.20517 -1.234511,-0.30332 -1.87,-0.29 -0.746178,-0.0136 -1.483241,0.16555 -2.14,0.52 -0.64372,0.36307 -1.19208,0.87373 -1.6,1.49 -0.469811,0.71434 -0.808447,1.50675 -1,2.34 -0.473008,2.09362 -0.473008,4.26638 0,6.36 0.183326,0.81424 0.522939,1.58516 1,2.27 0.423288,0.57293 0.983793,1.03027 1.63,1.33 0.676441,0.30034 1.409955,0.45045 2.15,0.44 0.637223,0.0135 1.272345,-0.0777 1.88,-0.27 0.471736,-0.15538 0.927219,-0.35633 1.36,-0.6 0.38,-0.22 0.69,-0.42 0.93,-0.6 0.172757,-0.14572 0.385241,-0.23629 0.61,-0.26 0.08863,-0.004 0.17615,0.0208 0.25,0.07 0.07913,0.0679 0.135076,0.15877 0.16,0.26 0.04835,0.17986 0.0785,0.36411 0.09,0.55 v 0.95 0.7 c -0.0118,0.16808 -0.03518,0.33514 -0.07,0.5 -0.02449,0.12462 -0.06482,0.2456 -0.12,0.36 -0.0694,0.12295 -0.153331,0.2371 -0.25,0.34 -0.197874,0.1912 -0.419727,0.35591 -0.66,0.49 -0.38245,0.22494 -0.784008,0.41568 -1.2,0.57 -0.526233,0.19576 -1.068195,0.3463 -1.62,0.45 -0.658938,0.12695 -1.328983,0.18726 -2,0.18 -1.275723,0.018 -2.542715,-0.21294 -3.73,-0.68 -1.075132,-0.45027 -2.027946,-1.14946 -2.78,-2.04 z m 16,7.91 c -0.01286,0.0967 -0.03981,0.19107 -0.08,0.28 -0.02903,0.0663 -0.07363,0.12461 -0.13,0.17 -0.0485,0.0382 -0.108268,0.0593 -0.17,0.06 h -5 v 19.68 c 0.01384,0.0626 0.01384,0.12742 0,0.19 -0.02809,0.0563 -0.07371,0.10191 -0.13,0.13 -0.07903,0.0386 -0.163238,0.0656 -0.25,0.08 -0.248013,0.0446 -0.501987,0.0446 -0.75,0 -0.08676,-0.0144 -0.170971,-0.0414 -0.25,-0.08 -0.05629,-0.0281 -0.101913,-0.0737 -0.13,-0.13 -0.01384,-0.0626 -0.01384,-0.12742 0,-0.19 v -19.68 h -5 c -0.06528,0.002 -0.129235,-0.0189 -0.18,-0.06 -0.05195,-0.0472 -0.09291,-0.10524 -0.12,-0.17 -0.04019,-0.0889 -0.06714,-0.18326 -0.08,-0.28 -0.01004,-0.12981 -0.01004,-0.26019 0,-0.39 -0.0099,-0.13649 -0.0099,-0.27351 0,-0.41 0.01274,-0.1032 0.03966,-0.20416 0.08,-0.3 0.02578,-0.0683 0.06682,-0.12991 0.12,-0.18 0.05077,-0.0411 0.114717,-0.0624 0.18,-0.06 H 64.7 c 0.06187,-7e-5 0.121881,0.0211 0.17,0.06 0.05738,0.0485 0.102015,0.11028 0.13,0.18 0.03965,0.0961 0.06655,0.19694 0.08,0.3 0.0093,0.13651 0.0093,0.27349 0,0.41 0.0096,0.12982 0.0096,0.26018 0,0.39 z m 14.26,20.19 c 0.01352,0.0626 0.01352,0.12739 0,0.19 -0.02809,0.0563 -0.07371,0.10191 -0.13,0.13 -0.07903,0.0386 -0.163238,0.0656 -0.25,0.08 -0.126316,0.0133 -0.253684,0.0133 -0.38,0 -0.126308,0.0135 -0.253692,0.0135 -0.38,0 -0.08327,-0.0156 -0.164017,-0.0425 -0.24,-0.08 -0.05629,-0.0281 -0.101913,-0.0737 -0.13,-0.13 -0.01384,-0.0626 -0.01384,-0.12742 0,-0.19 v -10.19 h -8.47 v 10.19 c 0.01352,0.0626 0.01352,0.12739 0,0.19 -0.02866,0.0559 -0.07413,0.10134 -0.13,0.13 -0.07588,0.0377 -0.156665,0.0646 -0.24,0.08 -0.251342,0.0449 -0.508658,0.0449 -0.76,0 -0.08673,-0.0146 -0.170919,-0.0415 -0.25,-0.08 -0.05629,-0.0281 -0.101913,-0.0737 -0.13,-0.13 -0.01384,-0.0626 -0.01384,-0.12742 0,-0.19 v -21.18 c -0.01384,-0.0626 -0.01384,-0.12742 0,-0.19 0.02809,-0.0563 0.07371,-0.10191 0.13,-0.13 0.07865,-0.0417 0.162826,-0.072 0.25,-0.09 0.251342,-0.0449 0.508658,-0.0449 0.76,0 0.08373,0.0189 0.164485,0.0492 0.24,0.09 0.05587,0.0287 0.10134,0.0741 0.13,0.13 0.01352,0.0626 0.01352,0.12739 0,0.19 v 9.16 h 8.39 v -9.16 c -0.01384,-0.0626 -0.01384,-0.12742 0,-0.19 0.02809,-0.0563 0.07371,-0.10191 0.13,-0.13 0.07581,-0.0402 0.156471,-0.0704 0.24,-0.09 0.126327,-0.0131 0.253673,-0.0131 0.38,0 0.126338,-0.0129 0.253662,-0.0129 0.38,0 0.08717,0.018 0.171348,0.0483 0.25,0.09 0.05629,0.0281 0.101913,0.0737 0.13,0.13 0.01352,0.0626 0.01352,0.12739 0,0.19 z m 1.74,-25.9 c -0.173252,0.13905 -0.387874,0.21646 -0.61,0.22 h -1.2 -1.24 c -0.229829,-0.006 -0.458099,-0.0398 -0.68,-0.1 -0.130069,-0.0319 -0.246034,-0.10567 -0.33,-0.21 -0.07213,-0.10713 -0.126179,-0.22536 -0.16,-0.35 l -1.35,-4.3 H 68 l -1.27,4.18 c -0.03305,0.13743 -0.08701,0.26896 -0.16,0.39 -0.08085,0.11608 -0.196366,0.20359 -0.33,0.25 -0.206422,0.0707 -0.421993,0.1111 -0.64,0.12 h -1.08 c -0.373026,0.0214 -0.746974,0.0214 -1.12,0 -0.210341,-0.006 -0.410506,-0.0919 -0.56,-0.24 -0.112423,-0.15589 -0.152484,-0.35255 -0.11,-0.54 0.05039,-0.31591 0.127326,-0.62702 0.23,-0.93 l 6.21,-19 c 0.05098,-0.15993 0.125101,-0.31154 0.22,-0.45 0.102446,-0.12683 0.242504,-0.21787 0.4,-0.26 0.243906,-0.0716 0.495926,-0.11194 0.75,-0.12 h 1.27 1.46 c 0.287015,0.007 0.572247,0.0473 0.85,0.12 0.172473,0.0389 0.327199,0.13385 0.44,0.27 0.103791,0.1528 0.181513,0.32176 0.23,0.5 l 6.22,19 c 0.101851,0.30663 0.178768,0.62098 0.23,0.94 0.03115,0.18579 -0.0283,0.37529 -0.16,0.51 z m 12.15,25.71 c -0.01189,0.10015 -0.03886,0.19792 -0.08,0.29 -0.03186,0.0702 -0.07983,0.13184 -0.14,0.18 -0.04812,0.0389 -0.108133,0.0601 -0.17,0.06 H 85 c -0.183244,-0.0135 -0.354648,-0.0957 -0.48,-0.23 -0.193973,-0.23442 -0.284226,-0.53767 -0.25,-0.84 v -19.73 c -0.03423,-0.30233 0.05603,-0.60558 0.25,-0.84 0.124748,-0.13516 0.296495,-0.21746 0.48,-0.23 h 7.75 c 0.06187,-7e-5 0.121881,0.0211 0.17,0.06 0.05801,0.0479 0.102767,0.10987 0.13,0.18 0.03965,0.0961 0.06655,0.19694 0.08,0.3 0.0099,0.13649 0.0099,0.27351 0,0.41 0.01004,0.12981 0.01004,0.26019 0,0.39 -0.01286,0.0967 -0.03981,0.19107 -0.08,0.28 -0.02868,0.0665 -0.07334,0.1249 -0.13,0.17 -0.04812,0.0389 -0.108133,0.0601 -0.17,0.06 h -6.9 v 7.69 h 5.95 c 0.06503,-7.5e-4 0.128425,0.0204 0.18,0.06 0.05637,0.0454 0.100968,0.1037 0.13,0.17 0.04114,0.0921 0.06811,0.18985 0.08,0.29 0.0093,0.13651 0.0093,0.27349 0,0.41 0.0098,0.12648 0.0098,0.25352 0,0.38 -0.01334,0.0902 -0.04031,0.17789 -0.08,0.26 -0.02967,0.0604 -0.07446,0.11205 -0.13,0.15 -0.05393,0.0337 -0.116436,0.051 -0.18,0.05 h -5.97 v 8.72 h 7 c 0.06173,7.1e-4 0.121497,0.0218 0.17,0.06 0.05849,0.0458 0.106271,0.10381 0.14,0.17 0.0424,0.0916 0.06943,0.1896 0.08,0.29 0.0093,0.13651 0.0093,0.27349 0,0.41 0.01246,0.12626 0.0158,0.25326 0.01,0.38 z m 1.58,-26.54 c -0.01988,0.19042 -0.06011,0.37816 -0.12,0.56 -0.03419,0.12147 -0.09972,0.23183 -0.19,0.32 -0.07495,0.0649 -0.17087,0.1004 -0.27,0.1 H 85 c -0.317212,0.008 -0.625343,-0.10639 -0.86,-0.32 -0.246052,-0.27291 -0.37216,-0.63322 -0.35,-1 v -19.47 c -0.0015,-0.10842 0.03374,-0.21417 0.1,-0.3 0.08817,-0.0995 0.202507,-0.17228 0.33,-0.21 0.204868,-0.0653 0.416027,-0.10885 0.63,-0.13 0.664957,-0.0675 1.335043,-0.0675 2,0 0.210597,0.0218 0.418369,0.0654 0.62,0.13 0.127271,0.0382 0.241486,0.11089 0.33,0.21 0.06626,0.0858 0.10151,0.19158 0.1,0.3 v 17.21 h 6.33 c 0.09761,-0.002 0.192825,0.0302 0.27,0.09 0.08955,0.0808 0.155263,0.18452 0.19,0.3 0.0618,0.17789 0.102087,0.36254 0.12,0.55 0.05141,0.55548 0.05141,1.11452 0,1.67 z m 37.6,21.24 c -0.74125,1.75704 -1.89765,3.30805 -3.37,4.52 -1.63121,1.3014 -3.51399,2.2513 -5.53,2.79 -4.86561,1.23434 -9.9582,1.26866 -14.84,0.1 -1.88644,-0.47635 -3.65809,-1.32647 -5.21,-2.5 -1.37718,-1.06857 -2.46094,-2.46886 -3.15,-4.07 -0.711754,-1.76845 -1.052141,-3.6644 -1,-5.57 -0.0071,-1.3578 0.202154,-2.70807 0.62,-4 0.41539,-1.25739 1.03722,-2.43685 1.84,-3.49 0.86597,-1.1256 1.8744,-2.13403 3,-3 1.31705,-1.01294 2.71509,-1.91597 4.18,-2.7 -1.21499,-0.68339 -2.36921,-1.46959 -3.45,-2.35 -0.987,-0.80122 -1.86747,-1.72539 -2.62,-2.75 -0.72544,-0.99588 -1.28282,-2.10389 -1.65,-3.28 -0.38401,-1.25708 -0.57287,-2.56564 -0.56,-3.88 -0.0357,-1.87835 0.30425,-3.74489 1,-5.49 0.68325,-1.63942 1.73353,-3.10023 3.07,-4.27 1.49079,-1.27065 3.23164,-2.21432 5.11,-2.77 2.30857,-0.69395 4.70959,-1.03117 7.12,-1 2.32489,-0.0482 4.6439,0.25182 6.88,0.89 1.72806,0.49618 3.33038,1.3553 4.7,2.52 1.20704,1.06241 2.14008,2.40022 2.72,3.9 0.60024,1.59784 0.89863,3.29323 0.88,5 0.001,1.20704 -0.19442,2.4062 -0.58,3.55 -0.39249,1.16202 -0.94083,2.26542 -1.63,3.28 -0.73964,1.07939 -1.60954,2.06348 -2.59,2.93 -1.07057,0.95125 -2.2368,1.78905 -3.48,2.5 1.42915,0.76822 2.79363,1.65112 4.08,2.64 1.12319,0.86872 2.13128,1.87681 3,3 0.8041,1.03838 1.44172,2.19556 1.89,3.43 0.45249,1.28441 0.67588,2.63831 0.66,4 0.0499,2.07615 -0.32084,4.14093 -1.09,6.07 z m 14,1.85 c -0.29461,0.75932 -0.75596,1.4428 -1.35,2 -0.60635,0.5546 -1.32153,0.97689 -2.1,1.24 -0.86932,0.29453 -1.78219,0.43992 -2.7,0.43 -0.58755,0.002 -1.17382,-0.0549 -1.75,-0.17 -0.51113,-0.1012 -1.01288,-0.24503 -1.5,-0.43 -0.39335,-0.14686 -0.77174,-0.33103 -1.13,-0.55 -0.24582,-0.14674 -0.47398,-0.32121 -0.68,-0.52 -0.15133,-0.15733 -0.26128,-0.34974 -0.32,-0.56 -0.0743,-0.29402 -0.10793,-0.59684 -0.1,-0.9 -0.0151,-0.17301 -0.0151,-0.34699 0,-0.52 0.022,-0.12938 0.0555,-0.25655 0.1,-0.38 0.0306,-0.093 0.0859,-0.17599 0.16,-0.24 0.0616,-0.0519 0.13951,-0.0802 0.22,-0.08 0.23641,0.0439 0.45515,0.15496 0.63,0.32 0.32047,0.2481 0.65431,0.47845 1,0.69 0.47088,0.27537 0.96635,0.50637 1.48,0.69 1.17793,0.38821 2.44433,0.41952 3.64,0.09 0.47408,-0.13837 0.91596,-0.36951 1.3,-0.68 0.37684,-0.31088 0.67206,-0.70908 0.86,-1.16 0.21574,-0.52632 0.32124,-1.09129 0.31,-1.66 0.0218,-0.55927 -0.11329,-1.11349 -0.39,-1.6 -0.25759,-0.44029 -0.59703,-0.82724 -1,-1.14 -0.4535,-0.33957 -0.94314,-0.62799 -1.46,-0.86 l -1.68,-0.77 c -0.57333,-0.26 -1.13333,-0.55 -1.68,-0.87 -0.53963,-0.31084 -1.0314,-0.69819 -1.46,-1.15 -0.42874,-0.47495 -0.76758,-1.02387 -1,-1.62 -0.27917,-0.72682 -0.41171,-1.50171 -0.39,-2.28 -4.8e-4,-0.70803 0.11783,-1.41112 0.35,-2.08 0.2335,-0.6815 0.6045,-1.30778 1.09,-1.84 0.52884,-0.56706 1.1734,-1.01382 1.89,-1.31 0.86666,-0.35012 1.79551,-0.52024 2.73,-0.5 0.4461,-0.001 0.89135,0.0388 1.33,0.12 0.40866,0.0756 0.81012,0.18604 1.2,0.33 0.32604,0.11783 0.64067,0.2651 0.94,0.44 0.2114,0.12296 0.4121,0.26346 0.6,0.42 0.10874,0.0844 0.20327,0.1857 0.28,0.3 0.0465,0.081 0.0802,0.16871 0.1,0.26 0.006,0.10992 0.006,0.22008 0,0.33 v 0.46 c 0.0109,0.15981 0.0109,0.32019 0,0.48 -0.0162,0.12628 -0.0464,0.25038 -0.09,0.37 -0.0298,0.091 -0.0813,0.17335 -0.15,0.24 -0.057,0.0529 -0.13228,0.0815 -0.21,0.08 -0.17748,-0.0363 -0.3407,-0.12312 -0.47,-0.25 -0.26357,-0.19937 -0.54093,-0.37982 -0.83,-0.54 -0.38963,-0.21627 -0.79794,-0.397 -1.22,-0.54 -0.52893,-0.17407 -1.08323,-0.25857 -1.64,-0.25 -0.55359,-0.01 -1.10483,0.0746 -1.63,0.25 -0.43141,0.1432 -0.82465,0.38256 -1.15,0.7 -0.30158,0.29926 -0.53372,0.66112 -0.68,1.06 -0.15563,0.426 -0.23353,0.87648 -0.23,1.33 -0.0219,0.58154 0.11283,1.15829 0.39,1.67 0.25445,0.45106 0.59407,0.84841 1,1.17 0.45966,0.34658 0.95597,0.64168 1.48,0.88 l 1.68,0.77 c 0.57333,0.25333 1.13333,0.53333 1.68,0.84 0.54348,0.30198 1.04171,0.67902 1.48,1.12 0.42867,0.45613 0.76788,0.98869 1,1.57 0.27888,0.699 0.41161,1.44773 0.39,2.2 0.0703,0.87723 -0.0282,1.75981 -0.29,2.6 z"
         id="path696"
         sodipodi:nodetypes="ccccccccccccccccccccccccccccccccccccccccccccccccccccccccssccccccccccccccccccccccscccccccccccccccccccccccccccccccccccccccccccccccccccccccccccccccccccccccccccccccccccccccccccccccccccccccccccccccccccccccccccccccccccccccccccccccccccccccccccccccccccccccccccccccccccccccccccccccccccccccccccccccccccccccccccccccccccccccccccccccccccccccccccccccccccccccccccccccccccccccccccccccccccccccccccccsccccccccccccccccccccccccccccc" />
      <path
         class="cls-1"
         d="M25.17,134.54a5.14,5.14,0,0,0-1.71-2,4.61,4.61,0,0,0-2.64-.72,4.46,4.46,0,0,0-2.63.75,5.61,5.61,0,0,0-1.74,2,9.9,9.9,0,0,0-1,3,20.89,20.89,0,0,0-.29,3.56,24.22,24.22,0,0,0,.27,3.71,10,10,0,0,0,.9,3,5.08,5.08,0,0,0,1.7,2,4.66,4.66,0,0,0,2.66.72,4.47,4.47,0,0,0,2.66-.77,5.63,5.63,0,0,0,1.74-2.06,10.26,10.26,0,0,0,.95-3,21.46,21.46,0,0,0,.29-3.57,22.55,22.55,0,0,0-.28-3.64A10.08,10.08,0,0,0,25.17,134.54Z"
         id="path698" />
    </g>
  </g>
</svg>
